<svg height="590" width="720" xmlns="http://www.w3.org/2000/svg">
<rect height="590" fill="#555" width="720"></rect>
<text fill="#7f7" font-family="Courier New" font-size="12" xml:space="preserve">
<tspan x="10" y="26">2020-02-19 13:04:50 -0600</tspan>

<tspan x="10" y="42">update.build</tspan>

<tspan x="10" y="58"></tspan>

<tspan x="10" y="74">2020-02-19 12:59:09 -0600</tspan>

<tspan x="10" y="90">update.build</tspan>

<tspan x="10" y="106"></tspan>

<tspan x="10" y="122">2020-02-19 12:43:33 -0600</tspan>

<tspan x="10" y="138">update.build</tspan>

<tspan x="10" y="154"></tspan>

<tspan x="10" y="170">2020-02-19 12:04:08 -0600</tspan>

<tspan x="10" y="186">update.build</tspan>

<tspan x="10" y="202"></tspan>

<tspan x="10" y="218">2020-02-19 11:55:36 -0600</tspan>

<tspan x="10" y="234">update.build</tspan>

<tspan x="10" y="250"></tspan>

<tspan x="10" y="266">2020-02-19 11:51:12 -0600</tspan>

<tspan x="10" y="282">update.build</tspan>

<tspan x="10" y="298"></tspan>

<tspan x="10" y="314">2020-02-19 11:50:27 -0600</tspan>

<tspan x="10" y="330">update.build</tspan>

<tspan x="10" y="346"></tspan>

<tspan x="10" y="362">2020-02-19 11:45:11 -0600</tspan>

<tspan x="10" y="378">update.build</tspan>

<tspan x="10" y="394"></tspan>

<tspan x="10" y="410">2020-02-19 11:40:20 -0600</tspan>

<tspan x="10" y="426">update.build</tspan>

<tspan x="10" y="442"></tspan>

<tspan x="10" y="458">2019-09-08 09:36:28 +0000</tspan>

<tspan x="10" y="474">[ci skip] [npm published 2019.9.8]</tspan>

<tspan x="10" y="490"></tspan>

<tspan x="10" y="506">2019-09-08 06:49:42 +0000</tspan>

<tspan x="10" y="522">[npm publishAfterCommitAfterBuild]</tspan>

<tspan x="10" y="538"></tspan>

<tspan x="10" y="554">2014-03-26 02:31:50 +0700</tspan>

<tspan x="10" y="570">add blank README.md</tspan>

</text>
</svg>
