<svg height="2862" width="720" xmlns="http://www.w3.org/2000/svg">
<rect height="2862" fill="#555" width="720"></rect>
<text fill="#7f7" font-family="Courier New" font-size="12" xml:space="preserve">
<tspan x="10" y="26"></tspan>

<tspan x="10" y="42">\x1b[35m[MODE_BUILD=npmTest]\x1b[0m - 2020-02-20T17:59:58.586Z - npm-testing /home/travis/build/\</tspan>
<tspan x="10" y="58">kaizhu256/node-sqljs-lite</tspan>

<tspan x="10" y="74"></tspan>

<tspan x="10" y="90"></tspan>

<tspan x="10" y="106">covering $ /home/travis/.nvm/versions/node/v13.9.0/bin/node /home/travis/build/kaizhu256/node-sq\</tspan>
<tspan x="10" y="122">ljs-lite/test.js</tspan>

<tspan x="10" y="138"></tspan>

<tspan x="10" y="154">npmTest - merged test-report from file /home/travis/build/kaizhu256/node-sqljs-lite/tmp/build/te\</tspan>
<tspan x="10" y="170">st-report.json</tspan>

<tspan x="10" y="186">&gt; </tspan>

<tspan x="10" y="202">npmTest - merged test-report from file /home/travis/build/kaizhu256/node-sqljs-lite/tmp/build/te\</tspan>
<tspan x="10" y="218">st-report.json</tspan>

<tspan x="10" y="234">--- /home/travis/build/kaizhu256/node-sqljs-lite/README.md.autofix.old	2020-02-20 17:59:59.30063\</tspan>
<tspan x="10" y="250">0564 +0000</tspan>

<tspan x="10" y="266">+++ /home/travis/build/kaizhu256/node-sqljs-lite/README.md	2020-02-20 17:59:59.300630564 +0000</tspan>

<tspan x="10" y="282">@@ -167,11 +167,10 @@</tspan>

<tspan x="10" y="298">     /*</tspan>

<tspan x="10" y="314">      * this function will throw err.&lt;message&gt; if &lt;passed&gt; is falsy</tspan>

<tspan x="10" y="330">      */</tspan>

<tspan x="10" y="346">-        let err;</tspan>

<tspan x="10" y="362">         if (passed) {</tspan>

<tspan x="10" y="378">             return;</tspan>

<tspan x="10" y="394">         }</tspan>

<tspan x="10" y="410">-        err = (</tspan>

<tspan x="10" y="426">+        throw (</tspan>

<tspan x="10" y="442">             (</tspan>

<tspan x="10" y="458">                 message</tspan>

<tspan x="10" y="474">                 &amp;&amp; typeof message.message === "string"</tspan>

<tspan x="10" y="490">@@ -187,7 +186,6 @@</tspan>

<tspan x="10" y="506">                 : JSON.stringify(message, undefined, 4)</tspan>

<tspan x="10" y="522">             )</tspan>

<tspan x="10" y="538">         );</tspan>

<tspan x="10" y="554">-        throw err;</tspan>

<tspan x="10" y="570">     };</tspan>

<tspan x="10" y="586">     local.coalesce = function (...argList) {</tspan>

<tspan x="10" y="602">     /*</tspan>

<tspan x="10" y="618">jslint-autofix - modified and saved file /home/travis/build/kaizhu256/node-sqljs-lite/README.md</tspan>

<tspan x="10" y="634">jslint - 343ms /home/travis/build/kaizhu256/node-sqljs-lite/README.md</tspan>

<tspan x="10" y="650">--- /home/travis/build/kaizhu256/node-sqljs-lite/lib.sqljs_lite.js.autofix.old	2020-02-20 17:59:\</tspan>
<tspan x="10" y="666">59.532746564 +0000</tspan>

<tspan x="10" y="682">+++ /home/travis/build/kaizhu256/node-sqljs-lite/lib.sqljs_lite.js	2020-02-20 17:59:59.532746564\</tspan>
<tspan x="10" y="698"> +0000</tspan>

<tspan x="10" y="714">@@ -59,11 +59,10 @@</tspan>

<tspan x="10" y="730">     /*</tspan>

<tspan x="10" y="746">      * this function will throw err.&lt;message&gt; if &lt;passed&gt; is falsy</tspan>

<tspan x="10" y="762">      */</tspan>

<tspan x="10" y="778">-        let err;</tspan>

<tspan x="10" y="794">         if (passed) {</tspan>

<tspan x="10" y="810">             return;</tspan>

<tspan x="10" y="826">         }</tspan>

<tspan x="10" y="842">-        err = (</tspan>

<tspan x="10" y="858">+        throw (</tspan>

<tspan x="10" y="874">             (</tspan>

<tspan x="10" y="890">                 message</tspan>

<tspan x="10" y="906">                 &amp;&amp; typeof message.message === "string"</tspan>

<tspan x="10" y="922">@@ -79,7 +78,6 @@</tspan>

<tspan x="10" y="938">                 : JSON.stringify(message, undefined, 4)</tspan>

<tspan x="10" y="954">             )</tspan>

<tspan x="10" y="970">         );</tspan>

<tspan x="10" y="986">-        throw err;</tspan>

<tspan x="10" y="1002">     };</tspan>

<tspan x="10" y="1018">     local.coalesce = function (...argList) {</tspan>

<tspan x="10" y="1034">     /*</tspan>

<tspan x="10" y="1050">jslint-autofix - modified and saved file /home/travis/build/kaizhu256/node-sqljs-lite/lib.sqljs_\</tspan>
<tspan x="10" y="1066">lite.js</tspan>

<tspan x="10" y="1082">jslint - 195ms /home/travis/build/kaizhu256/node-sqljs-lite/lib.sqljs_lite.js</tspan>

<tspan x="10" y="1098">jslint - 11ms /home/travis/build/kaizhu256/node-sqljs-lite/npm_scripts.sh</tspan>

<tspan x="10" y="1114">jslint - 20ms /home/travis/build/kaizhu256/node-sqljs-lite/package.json</tspan>

<tspan x="10" y="1130">--- /home/travis/build/kaizhu256/node-sqljs-lite/test.js.autofix.old	2020-02-20 17:59:59.6087845\</tspan>
<tspan x="10" y="1146">64 +0000</tspan>

<tspan x="10" y="1162">+++ /home/travis/build/kaizhu256/node-sqljs-lite/test.js	2020-02-20 17:59:59.608784564 +0000</tspan>

<tspan x="10" y="1178">@@ -49,11 +49,10 @@</tspan>

<tspan x="10" y="1194">     /*</tspan>

<tspan x="10" y="1210">      * this function will throw err.&lt;message&gt; if &lt;passed&gt; is falsy</tspan>

<tspan x="10" y="1226">      */</tspan>

<tspan x="10" y="1242">-        let err;</tspan>

<tspan x="10" y="1258">         if (passed) {</tspan>

<tspan x="10" y="1274">             return;</tspan>

<tspan x="10" y="1290">         }</tspan>

<tspan x="10" y="1306">-        err = (</tspan>

<tspan x="10" y="1322">+        throw (</tspan>

<tspan x="10" y="1338">             (</tspan>

<tspan x="10" y="1354">                 message</tspan>

<tspan x="10" y="1370">                 &amp;&amp; typeof message.message === "string"</tspan>

<tspan x="10" y="1386">@@ -69,7 +68,6 @@</tspan>

<tspan x="10" y="1402">                 : JSON.stringify(message, undefined, 4)</tspan>

<tspan x="10" y="1418">             )</tspan>

<tspan x="10" y="1434">         );</tspan>

<tspan x="10" y="1450">-        throw err;</tspan>

<tspan x="10" y="1466">     };</tspan>

<tspan x="10" y="1482">     local.coalesce = function (...argList) {</tspan>

<tspan x="10" y="1498">     /*</tspan>

<tspan x="10" y="1514">jslint-autofix - modified and saved file /home/travis/build/kaizhu256/node-sqljs-lite/test.js</tspan>

<tspan x="10" y="1530">jslint - 55ms /home/travis/build/kaizhu256/node-sqljs-lite/test.js</tspan>

<tspan x="10" y="1546">http-server listening on port 63201</tspan>

<tspan x="10" y="1562">testRunDefault - 21 ms - [node test-case 1 of 7 passed] - testCase_buildApidoc_default</tspan>

<tspan x="10" y="1578">testRunDefault - 50 ms - [node test-case 2 of 7 passed] - testCase_buildLib_default</tspan>

<tspan x="10" y="1594">testRunDefault - 58 ms - [node test-case 3 of 7 passed] - testCase_buildReadme_default</tspan>

<tspan x="10" y="1610">testRunDefault - 59 ms - [node test-case 4 of 7 passed] - testCase_buildTest_default</tspan>

<tspan x="10" y="1626">testRunDefault - 59 ms - [node test-case 5 of 7 passed] - testCase_nop_default</tspan>

<tspan x="10" y="1642"></tspan>

<tspan x="10" y="1658">DevTools listening on ws://127.0.0.1:43789/devtools/browser/48aa093f-4d41-40e4-bd85-93d254c35507</tspan>

<tspan x="10" y="1674">[0220/180000.544855:ERROR:command_buffer_proxy_impl.cc(125)] ContextResult::kTransientFailure: F\</tspan>
<tspan x="10" y="1690">ailed to send GpuChannelMsg_CreateCommandBuffer.</tspan>

<tspan x="10" y="1706">[0220/180000.544737:WARNING:ipc_message_attachment_set.cc(49)] MessageAttachmentSet destroyed wi\</tspan>
<tspan x="10" y="1722">th unconsumed attachments: 0/1</tspan>

<tspan x="10" y="1738">[0220/180000.545423:WARNING:ipc_message_attachment_set.cc(49)] MessageAttachmentSet destroyed wi\</tspan>
<tspan x="10" y="1754">th unconsumed attachments: 0/1</tspan>

<tspan x="10" y="1770">http-server listening on port 41492</tspan>

<tspan x="10" y="1786">[0220/180001.621678:INFO:CONSOLE(381)] "testRunDefault - 5 ms - [browser test-case 1 of 2 passed\</tspan>
<tspan x="10" y="1802">] - testCase_buildApp_default", source: http://127.0.0.1:63201/assets.example.js (381)</tspan>

<tspan x="10" y="1818">[0220/180001.631212:INFO:CONSOLE(381)] "testRunDefault - 15 ms - [browser test-case 2 of 2 passe\</tspan>
<tspan x="10" y="1834">d] - testCase_nop_default", source: http://127.0.0.1:63201/assets.example.js (381)</tspan>

<tspan x="10" y="1850">[0220/180001.730890:INFO:CONSOLE(381)] "domOnEventWindowOnloadTimeElapsed = 855", source: http:/\</tspan>
<tspan x="10" y="1866">/127.0.0.1:63201/assets.example.js (381)</tspan>

<tspan x="10" y="1882">testRunDefault - 1790 ms - [node test-case 6 of 7 passed] - testCase_webpage_default</tspan>

<tspan x="10" y="1898">Error: Protocol error (Runtime.enable): Target closed.</tspan>

<tspan x="10" y="1914">    at /home/travis/build/kaizhu256/node-sqljs-lite/node_modules/utility2/lib.puppeteer.js:4749:\</tspan>
<tspan x="10" y="1930">56</tspan>

<tspan x="10" y="1946">    at new Promise (&lt;anonymous&gt;)</tspan>

<tspan x="10" y="1962">    at CDPSession.send (/home/travis/build/kaizhu256/node-sqljs-lite/node_modules/utility2/lib.p\</tspan>
<tspan x="10" y="1978">uppeteer.js:4748:12)</tspan>

<tspan x="10" y="1994">    at new Worker (/home/travis/build/kaizhu256/node-sqljs-lite/node_modules/utility2/lib.puppet\</tspan>
<tspan x="10" y="2010">eer.js:12630:18)</tspan>

<tspan x="10" y="2026">    at CDPSession.&lt;anonymous&gt; (/home/travis/build/kaizhu256/node-sqljs-lite/node_modules/utility\</tspan>
<tspan x="10" y="2042">2/lib.puppeteer.js:10457:22)</tspan>

<tspan x="10" y="2058">    at CDPSession.emit (events.js:321:20)</tspan>

<tspan x="10" y="2074">    at CDPSession.EventEmitter.emit (domain.js:485:12)</tspan>

<tspan x="10" y="2090">    at CDPSession._onMessage (/home/travis/build/kaizhu256/node-sqljs-lite/node_modules/utility2\</tspan>
<tspan x="10" y="2106">/lib.puppeteer.js:4766:12)</tspan>

<tspan x="10" y="2122">    at Connection._onMessage (/home/travis/build/kaizhu256/node-sqljs-lite/node_modules/utility2\</tspan>
<tspan x="10" y="2138">/lib.puppeteer.js:4678:17)</tspan>

<tspan x="10" y="2154">    at WebSocket.&lt;anonymous&gt; (/home/travis/build/kaizhu256/node-sqljs-lite/node_modules/utility2\</tspan>
<tspan x="10" y="2170">/lib.puppeteer.js:12559:24) {</tspan>

<tspan x="10" y="2186">  message: 'Protocol error (Runtime.enable): Target closed.'</tspan>

<tspan x="10" y="2202">}</tspan>

<tspan x="10" y="2218">testRunDefault - 5928 ms - [node test-case 7 of 7 passed] - testCase_buildApp_default</tspan>

<tspan x="10" y="2234">------------------------|-----------|-----------|-----------|-----------|</tspan>

<tspan x="10" y="2250">File                    |   % Stmts |% Branches |   % Funcs |   % Lines |</tspan>

<tspan x="10" y="2266">------------------------|-----------|-----------|-----------|-----------|</tspan>

<tspan x="10" y="2282">   node-sqljs-lite/     |     96.38 |     96.54 |     97.49 |     96.01 |</tspan>

<tspan x="10" y="2298">      lib.sqljs_lite.js |     96.29 |     96.45 |     97.44 |     95.92 |</tspan>

<tspan x="10" y="2314">      test.js           |       100 |       100 |       100 |       100 |</tspan>

<tspan x="10" y="2330">------------------------|-----------|-----------|-----------|-----------|</tspan>

<tspan x="10" y="2346">All files               |     96.38 |     96.54 |     97.49 |     96.01 |</tspan>

<tspan x="10" y="2362">------------------------|-----------|-----------|-----------|-----------|</tspan>

<tspan x="10" y="2378"></tspan>

<tspan x="10" y="2394">created coverage file /home/travis/build/kaizhu256/node-sqljs-lite/tmp/build/coverage.html/index\</tspan>
<tspan x="10" y="2410">.html</tspan>

<tspan x="10" y="2426"></tspan>

<tspan x="10" y="2442">npmTest - merged test-report from file /home/travis/build/kaizhu256/node-sqljs-lite/tmp/build/te\</tspan>
<tspan x="10" y="2458">st-report.json</tspan>

<tspan x="10" y="2474"></tspan>

<tspan x="10" y="2490">-------------------------------------------------------</tspan>

<tspan x="10" y="2506">| test-report - npmTest - browser - / - Mozilla/5.0 (X11; Linux x86_64) AppleWebKit/537.36 (KHTM\</tspan>
<tspan x="10" y="2522">L, like Gecko) HeadlessChrome/80.0.3987.116 Safari/537.36 - 2020-02-20T18:00:00.950Z</tspan>

<tspan x="10" y="2538">|      18 ms            0 failed        2 passed      |</tspan>

<tspan x="10" y="2554">-------------------------------------------------------</tspan>

<tspan x="10" y="2570">| test-report - npmTest - node - linux v13.9.0 - 2020-02-20T17:59:58.734Z</tspan>

<tspan x="10" y="2586">|    5928 ms            0 failed        7 passed      |</tspan>

<tspan x="10" y="2602">-------------------------------------------------------</tspan>

<tspan x="10" y="2618">| test-report - npmTestPublished - browser - / - Mozilla/5.0 (X11; Linux x86_64) AppleWebKit/537\</tspan>
<tspan x="10" y="2634">.36 (KHTML, like Gecko) HeadlessChrome/80.0.3987.116 Safari/537.36 - 2020-02-20T17:59:21.042Z</tspan>

<tspan x="10" y="2650">|      37 ms            0 failed        2 passed      |</tspan>

<tspan x="10" y="2666">-------------------------------------------------------</tspan>

<tspan x="10" y="2682">| test-report - npmTestPublished - node - linux v13.9.0 - 2020-02-20T17:59:18.428Z</tspan>

<tspan x="10" y="2698">|    5950 ms            0 failed        7 passed      |</tspan>

<tspan x="10" y="2714">-------------------------------------------------------</tspan>

<tspan x="10" y="2730"></tspan>

<tspan x="10" y="2746">created test-report file /home/travis/build/kaizhu256/node-sqljs-lite/tmp/build/test-report.html</tspan>

<tspan x="10" y="2762"></tspan>

<tspan x="10" y="2778"></tspan>

<tspan x="10" y="2794">npmTest - 0 failed tests</tspan>

<tspan x="10" y="2810"></tspan>

<tspan x="10" y="2826"></tspan>

<tspan x="10" y="2842">\x1b[35m[MODE_BUILD=npmTest]\x1b[0m - 2020-02-20T18:00:06.553Z - EXIT_CODE - 0</tspan>

</text>
</svg>
