<svg height="5086" width="720" xmlns="http://www.w3.org/2000/svg">
<rect height="5086" fill="#555" width="720"></rect>
<text fill="#7f7" font-family="Courier New" font-size="12" xml:space="preserve">
<tspan x="10" y="26"></tspan>

<tspan x="10" y="42">\x1b[35m[MODE_BUILD=npmTestPublished]\x1b[0m - 2020-02-20T17:59:18.258Z - npm-testing /tmp/npmTe\</tspan>
<tspan x="10" y="58">stPublished/node_modules/sqljs-lite</tspan>

<tspan x="10" y="74"></tspan>

<tspan x="10" y="90"></tspan>

<tspan x="10" y="106">covering $ /home/travis/.nvm/versions/node/v13.9.0/bin/node /tmp/npmTestPublished/node_modules/s\</tspan>
<tspan x="10" y="122">qljs-lite/test.js</tspan>

<tspan x="10" y="138">&gt; --- /tmp/npmTestPublished/node_modules/sqljs-lite/README.md.autofix.old	2020-02-20 17:59:19.07\</tspan>
<tspan x="10" y="154">2527012 +0000</tspan>

<tspan x="10" y="170">+++ /tmp/npmTestPublished/node_modules/sqljs-lite/README.md	2020-02-20 17:59:19.072527012 +0000</tspan>

<tspan x="10" y="186">@@ -167,11 +167,10 @@</tspan>

<tspan x="10" y="202">     /*</tspan>

<tspan x="10" y="218">      * this function will throw err.&lt;message&gt; if &lt;passed&gt; is falsy</tspan>

<tspan x="10" y="234">      */</tspan>

<tspan x="10" y="250">-        let err;</tspan>

<tspan x="10" y="266">         if (passed) {</tspan>

<tspan x="10" y="282">             return;</tspan>

<tspan x="10" y="298">         }</tspan>

<tspan x="10" y="314">-        err = (</tspan>

<tspan x="10" y="330">+        throw (</tspan>

<tspan x="10" y="346">             (</tspan>

<tspan x="10" y="362">                 message</tspan>

<tspan x="10" y="378">                 &amp;&amp; typeof message.message === "string"</tspan>

<tspan x="10" y="394">@@ -187,7 +186,6 @@</tspan>

<tspan x="10" y="410">                 : JSON.stringify(message, undefined, 4)</tspan>

<tspan x="10" y="426">             )</tspan>

<tspan x="10" y="442">         );</tspan>

<tspan x="10" y="458">-        throw err;</tspan>

<tspan x="10" y="474">     };</tspan>

<tspan x="10" y="490">     local.coalesce = function (...argList) {</tspan>

<tspan x="10" y="506">     /*</tspan>

<tspan x="10" y="522">jslint-autofix - modified and saved file /tmp/npmTestPublished/node_modules/sqljs-lite/README.md</tspan>

<tspan x="10" y="538">jslint - 389ms /tmp/npmTestPublished/node_modules/sqljs-lite/README.md</tspan>

<tspan x="10" y="554">--- /tmp/npmTestPublished/node_modules/sqljs-lite/lib.sqljs_lite.js.autofix.old	2020-02-20 17:59\</tspan>
<tspan x="10" y="570">:19.320651003 +0000</tspan>

<tspan x="10" y="586">+++ /tmp/npmTestPublished/node_modules/sqljs-lite/lib.sqljs_lite.js	2020-02-20 17:59:19.30864500\</tspan>
<tspan x="10" y="602">4 +0000</tspan>

<tspan x="10" y="618">@@ -59,11 +59,10 @@</tspan>

<tspan x="10" y="634">     /*</tspan>

<tspan x="10" y="650">      * this function will throw err.&lt;message&gt; if &lt;passed&gt; is falsy</tspan>

<tspan x="10" y="666">      */</tspan>

<tspan x="10" y="682">-        let err;</tspan>

<tspan x="10" y="698">         if (passed) {</tspan>

<tspan x="10" y="714">             return;</tspan>

<tspan x="10" y="730">         }</tspan>

<tspan x="10" y="746">-        err = (</tspan>

<tspan x="10" y="762">+        throw (</tspan>

<tspan x="10" y="778">             (</tspan>

<tspan x="10" y="794">                 message</tspan>

<tspan x="10" y="810">                 &amp;&amp; typeof message.message === "string"</tspan>

<tspan x="10" y="826">@@ -79,7 +78,6 @@</tspan>

<tspan x="10" y="842">                 : JSON.stringify(message, undefined, 4)</tspan>

<tspan x="10" y="858">             )</tspan>

<tspan x="10" y="874">         );</tspan>

<tspan x="10" y="890">-        throw err;</tspan>

<tspan x="10" y="906">     };</tspan>

<tspan x="10" y="922">     local.coalesce = function (...argList) {</tspan>

<tspan x="10" y="938">     /*</tspan>

<tspan x="10" y="954">jslint-autofix - modified and saved file /tmp/npmTestPublished/node_modules/sqljs-lite/lib.sqljs\</tspan>
<tspan x="10" y="970">_lite.js</tspan>

<tspan x="10" y="986">jslint - 226ms /tmp/npmTestPublished/node_modules/sqljs-lite/lib.sqljs_lite.js</tspan>

<tspan x="10" y="1002">jslint - 2ms /tmp/npmTestPublished/node_modules/sqljs-lite/npm_scripts.sh</tspan>

<tspan x="10" y="1018">--- /tmp/npmTestPublished/node_modules/sqljs-lite/package.json.autofix.old	2020-02-20 17:59:19.3\</tspan>
<tspan x="10" y="1034">68675002 +0000</tspan>

<tspan x="10" y="1050">+++ /tmp/npmTestPublished/node_modules/sqljs-lite/package.json	2020-02-20 17:59:19.368675002 +00\</tspan>
<tspan x="10" y="1066">00</tspan>

<tspan x="10" y="1082">@@ -1,70 +1,70 @@</tspan>

<tspan x="10" y="1098"> {</tspan>

<tspan x="10" y="1114">-  "_from": "sqljs-lite",</tspan>

<tspan x="10" y="1130">-  "_id": "sqljs-lite@2020.2.12",</tspan>

<tspan x="10" y="1146">-  "_inBundle": false,</tspan>

<tspan x="10" y="1162">-  "_integrity": "sha512-kfhLPJfsLnyxxkACHDwFseANHTU1DibxHzy5XVfqcbHJCGyIr/W0vlI5PKOnWRfJfvGNIVb\</tspan>
<tspan x="10" y="1178">XU8ovRZL0NC/S6A==",</tspan>

<tspan x="10" y="1194">-  "_location": "/sqljs-lite",</tspan>

<tspan x="10" y="1210">-  "_phantomChildren": {},</tspan>

<tspan x="10" y="1226">-  "_requested": {</tspan>

<tspan x="10" y="1242">-    "type": "tag",</tspan>

<tspan x="10" y="1258">-    "registry": true,</tspan>

<tspan x="10" y="1274">-    "raw": "sqljs-lite",</tspan>

<tspan x="10" y="1290">+    "_from": "sqljs-lite",</tspan>

<tspan x="10" y="1306">+    "_id": "sqljs-lite@2020.2.12",</tspan>

<tspan x="10" y="1322">+    "_inBundle": false,</tspan>

<tspan x="10" y="1338">+    "_integrity": "sha512-kfhLPJfsLnyxxkACHDwFseANHTU1DibxHzy5XVfqcbHJCGyIr/W0vlI5PKOnWRfJfvGNI\</tspan>
<tspan x="10" y="1354">VbXU8ovRZL0NC/S6A==",</tspan>

<tspan x="10" y="1370">+    "_location": "/sqljs-lite",</tspan>

<tspan x="10" y="1386">+    "_phantomChildren": {},</tspan>

<tspan x="10" y="1402">+    "_requested": {</tspan>

<tspan x="10" y="1418">+        "escapedName": "sqljs-lite",</tspan>

<tspan x="10" y="1434">+        "fetchSpec": "latest",</tspan>

<tspan x="10" y="1450">+        "name": "sqljs-lite",</tspan>

<tspan x="10" y="1466">+        "raw": "sqljs-lite",</tspan>

<tspan x="10" y="1482">+        "rawSpec": "",</tspan>

<tspan x="10" y="1498">+        "registry": true,</tspan>

<tspan x="10" y="1514">+        "saveSpec": null,</tspan>

<tspan x="10" y="1530">+        "type": "tag"</tspan>

<tspan x="10" y="1546">+    },</tspan>

<tspan x="10" y="1562">+    "_requiredBy_": [</tspan>

<tspan x="10" y="1578">+        "#USER",</tspan>

<tspan x="10" y="1594">+        "/"</tspan>

<tspan x="10" y="1610">+    ],</tspan>

<tspan x="10" y="1626">+    "_resolved": "https://registry.npmjs.org/sqljs-lite/-/sqljs-lite-2020.2.12.tgz",</tspan>

<tspan x="10" y="1642">+    "_shasum": "7e12d1cfac96dcfcf96aee738fba0d15a2231346",</tspan>

<tspan x="10" y="1658">+    "_spec": "sqljs-lite",</tspan>

<tspan x="10" y="1674">+    "_where": "/tmp/npmTestPublished",</tspan>

<tspan x="10" y="1690">+    "author": {</tspan>

<tspan x="10" y="1706">+        "email": "kaizhu256@gmail.com",</tspan>

<tspan x="10" y="1722">+        "name": "kai zhu"</tspan>

<tspan x="10" y="1738">+    },</tspan>

<tspan x="10" y="1754">+    "bugs": {</tspan>

<tspan x="10" y="1770">+        "url": "https://github.com/kaizhu256/node-sqljs-lite/issues"</tspan>

<tspan x="10" y="1786">+    },</tspan>

<tspan x="10" y="1802">+    "bundleDependencies": false,</tspan>

<tspan x="10" y="1818">+    "deprecated": false,</tspan>

<tspan x="10" y="1834">+    "description": "this zero-dependency package will import/export 100mb spreadsheets to/from \</tspan>
<tspan x="10" y="1850">wasm-sqlite inside browser",</tspan>

<tspan x="10" y="1866">+    "devDependencies": {</tspan>

<tspan x="10" y="1882">+        "utility2": "github:kaizhu256/node-utility2#alpha"</tspan>

<tspan x="10" y="1898">+    },</tspan>

<tspan x="10" y="1914">+    "engines": {</tspan>

<tspan x="10" y="1930">+        "node": "&gt;=10.0"</tspan>

<tspan x="10" y="1946">+    },</tspan>

<tspan x="10" y="1962">+    "fileCount": 9,</tspan>

<tspan x="10" y="1978">+    "homepage": "https://github.com/kaizhu256/node-sqljs-lite",</tspan>

<tspan x="10" y="1994">+    "keywords": [],</tspan>

<tspan x="10" y="2010">+    "license": "MIT",</tspan>

<tspan x="10" y="2026">+    "main": "lib.sqljs_lite.js",</tspan>

<tspan x="10" y="2042">     "name": "sqljs-lite",</tspan>

<tspan x="10" y="2058">-    "escapedName": "sqljs-lite",</tspan>

<tspan x="10" y="2074">-    "rawSpec": "",</tspan>

<tspan x="10" y="2090">-    "saveSpec": null,</tspan>

<tspan x="10" y="2106">-    "fetchSpec": "latest"</tspan>

<tspan x="10" y="2122">-  },</tspan>

<tspan x="10" y="2138">-  "_requiredBy_": [</tspan>

<tspan x="10" y="2154">-    "#USER",</tspan>

<tspan x="10" y="2170">-    "/"</tspan>

<tspan x="10" y="2186">-  ],</tspan>

<tspan x="10" y="2202">-  "_resolved": "https://registry.npmjs.org/sqljs-lite/-/sqljs-lite-2020.2.12.tgz",</tspan>

<tspan x="10" y="2218">-  "_shasum": "7e12d1cfac96dcfcf96aee738fba0d15a2231346",</tspan>

<tspan x="10" y="2234">-  "_spec": "sqljs-lite",</tspan>

<tspan x="10" y="2250">-  "_where": "/tmp/npmTestPublished",</tspan>

<tspan x="10" y="2266">-  "author": {</tspan>

<tspan x="10" y="2282">-    "name": "kai zhu",</tspan>

<tspan x="10" y="2298">-    "email": "kaizhu256@gmail.com"</tspan>

<tspan x="10" y="2314">-  },</tspan>

<tspan x="10" y="2330">-  "bugs": {</tspan>

<tspan x="10" y="2346">-    "url": "https://github.com/kaizhu256/node-sqljs-lite/issues"</tspan>

<tspan x="10" y="2362">-  },</tspan>

<tspan x="10" y="2378">-  "bundleDependencies": false,</tspan>

<tspan x="10" y="2394">-  "deprecated": false,</tspan>

<tspan x="10" y="2410">-  "description": "this zero-dependency package will import/export 100mb spreadsheets to/from wa\</tspan>
<tspan x="10" y="2426">sm-sqlite inside browser",</tspan>

<tspan x="10" y="2442">-  "devDependencies": {</tspan>

<tspan x="10" y="2458">-    "utility2": "github:kaizhu256/node-utility2#alpha"</tspan>

<tspan x="10" y="2474">-  },</tspan>

<tspan x="10" y="2490">-  "engines": {</tspan>

<tspan x="10" y="2506">-    "node": "&gt;=10.0"</tspan>

<tspan x="10" y="2522">-  },</tspan>

<tspan x="10" y="2538">-  "fileCount": 9,</tspan>

<tspan x="10" y="2554">-  "homepage": "https://github.com/kaizhu256/node-sqljs-lite",</tspan>

<tspan x="10" y="2570">-  "keywords": [],</tspan>

<tspan x="10" y="2586">-  "license": "MIT",</tspan>

<tspan x="10" y="2602">-  "main": "lib.sqljs_lite.js",</tspan>

<tspan x="10" y="2618">-  "name": "sqljs-lite",</tspan>

<tspan x="10" y="2634">-  "nameAliasPublish": "wasm-sqlite",</tspan>

<tspan x="10" y="2650">-  "nameLib": "sqljs_lite",</tspan>

<tspan x="10" y="2666">-  "nameOriginal": "sqljs-lite",</tspan>

<tspan x="10" y="2682">-  "os": [</tspan>

<tspan x="10" y="2698">-    "darwin",</tspan>

<tspan x="10" y="2714">-    "linux"</tspan>

<tspan x="10" y="2730">-  ],</tspan>

<tspan x="10" y="2746">-  "repository": {</tspan>

<tspan x="10" y="2762">-    "type": "git",</tspan>

<tspan x="10" y="2778">-    "url": "git+https://github.com/kaizhu256/node-sqljs-lite.git"</tspan>

<tspan x="10" y="2794">-  },</tspan>

<tspan x="10" y="2810">-  "scripts": {</tspan>

<tspan x="10" y="2826">-    "build-ci": "./npm_scripts.sh",</tspan>

<tspan x="10" y="2842">-    "env": "env",</tspan>

<tspan x="10" y="2858">-    "eval": "./npm_scripts.sh",</tspan>

<tspan x="10" y="2874">-    "heroku-postbuild": "./npm_scripts.sh",</tspan>

<tspan x="10" y="2890">-    "postinstall": "./npm_scripts.sh",</tspan>

<tspan x="10" y="2906">-    "start": "./npm_scripts.sh",</tspan>

<tspan x="10" y="2922">-    "test": "./npm_scripts.sh",</tspan>

<tspan x="10" y="2938">-    "utility2": "./npm_scripts.sh"</tspan>

<tspan x="10" y="2954">-  },</tspan>

<tspan x="10" y="2970">-  "version": "2020.2.12"</tspan>

<tspan x="10" y="2986">+    "nameAliasPublish": "wasm-sqlite",</tspan>

<tspan x="10" y="3002">+    "nameLib": "sqljs_lite",</tspan>

<tspan x="10" y="3018">+    "nameOriginal": "sqljs-lite",</tspan>

<tspan x="10" y="3034">+    "os": [</tspan>

<tspan x="10" y="3050">+        "darwin",</tspan>

<tspan x="10" y="3066">+        "linux"</tspan>

<tspan x="10" y="3082">+    ],</tspan>

<tspan x="10" y="3098">+    "repository": {</tspan>

<tspan x="10" y="3114">+        "type": "git",</tspan>

<tspan x="10" y="3130">+        "url": "git+https://github.com/kaizhu256/node-sqljs-lite.git"</tspan>

<tspan x="10" y="3146">+    },</tspan>

<tspan x="10" y="3162">+    "scripts": {</tspan>

<tspan x="10" y="3178">+        "build-ci": "./npm_scripts.sh",</tspan>

<tspan x="10" y="3194">+        "env": "env",</tspan>

<tspan x="10" y="3210">+        "eval": "./npm_scripts.sh",</tspan>

<tspan x="10" y="3226">+        "heroku-postbuild": "./npm_scripts.sh",</tspan>

<tspan x="10" y="3242">+        "postinstall": "./npm_scripts.sh",</tspan>

<tspan x="10" y="3258">+        "start": "./npm_scripts.sh",</tspan>

<tspan x="10" y="3274">+        "test": "./npm_scripts.sh",</tspan>

<tspan x="10" y="3290">+        "utility2": "./npm_scripts.sh"</tspan>

<tspan x="10" y="3306">+    },</tspan>

<tspan x="10" y="3322">+    "version": "2020.2.12"</tspan>

<tspan x="10" y="3338"> }</tspan>

<tspan x="10" y="3354">jslint-autofix - modified and saved file /tmp/npmTestPublished/node_modules/sqljs-lite/package.j\</tspan>
<tspan x="10" y="3370">son</tspan>

<tspan x="10" y="3386">jslint - 39ms /tmp/npmTestPublished/node_modules/sqljs-lite/package.json</tspan>

<tspan x="10" y="3402">--- /tmp/npmTestPublished/node_modules/sqljs-lite/test.js.autofix.old	2020-02-20 17:59:19.440710\</tspan>
<tspan x="10" y="3418">999 +0000</tspan>

<tspan x="10" y="3434">+++ /tmp/npmTestPublished/node_modules/sqljs-lite/test.js	2020-02-20 17:59:19.436708999 +0000</tspan>

<tspan x="10" y="3450">@@ -49,11 +49,10 @@</tspan>

<tspan x="10" y="3466">     /*</tspan>

<tspan x="10" y="3482">      * this function will throw err.&lt;message&gt; if &lt;passed&gt; is falsy</tspan>

<tspan x="10" y="3498">      */</tspan>

<tspan x="10" y="3514">-        let err;</tspan>

<tspan x="10" y="3530">         if (passed) {</tspan>

<tspan x="10" y="3546">             return;</tspan>

<tspan x="10" y="3562">         }</tspan>

<tspan x="10" y="3578">-        err = (</tspan>

<tspan x="10" y="3594">+        throw (</tspan>

<tspan x="10" y="3610">             (</tspan>

<tspan x="10" y="3626">                 message</tspan>

<tspan x="10" y="3642">                 &amp;&amp; typeof message.message === "string"</tspan>

<tspan x="10" y="3658">@@ -69,7 +68,6 @@</tspan>

<tspan x="10" y="3674">                 : JSON.stringify(message, undefined, 4)</tspan>

<tspan x="10" y="3690">             )</tspan>

<tspan x="10" y="3706">         );</tspan>

<tspan x="10" y="3722">-        throw err;</tspan>

<tspan x="10" y="3738">     };</tspan>

<tspan x="10" y="3754">     local.coalesce = function (...argList) {</tspan>

<tspan x="10" y="3770">     /*</tspan>

<tspan x="10" y="3786">jslint-autofix - modified and saved file /tmp/npmTestPublished/node_modules/sqljs-lite/test.js</tspan>

<tspan x="10" y="3802">jslint - 74ms /tmp/npmTestPublished/node_modules/sqljs-lite/test.js</tspan>

<tspan x="10" y="3818">http-server listening on port 38268</tspan>

<tspan x="10" y="3834">testRunDefault - 22 ms - [node test-case 1 of 7 passed] - testCase_buildApidoc_default</tspan>

<tspan x="10" y="3850">testRunDefault - 47 ms - [node test-case 2 of 7 passed] - testCase_buildLib_default</tspan>

<tspan x="10" y="3866">testRunDefault - 55 ms - [node test-case 3 of 7 passed] - testCase_buildReadme_default</tspan>

<tspan x="10" y="3882">testRunDefault - 56 ms - [node test-case 4 of 7 passed] - testCase_buildTest_default</tspan>

<tspan x="10" y="3898">testRunDefault - 56 ms - [node test-case 5 of 7 passed] - testCase_nop_default</tspan>

<tspan x="10" y="3914"></tspan>

<tspan x="10" y="3930">DevTools listening on ws://127.0.0.1:36323/devtools/browser/718b3ac8-6ccb-4311-aaf1-c23eb110f142</tspan>

<tspan x="10" y="3946">[0220/175920.737367:ERROR:command_buffer_proxy_impl.cc(125)] ContextResult::kTransientFailure: F\</tspan>
<tspan x="10" y="3962">ailed to send GpuChannelMsg_CreateCommandBuffer.</tspan>

<tspan x="10" y="3978">[0220/175920.737343:WARNING:ipc_message_attachment_set.cc(49)] MessageAttachmentSet destroyed wi\</tspan>
<tspan x="10" y="3994">th unconsumed attachments: 0/1</tspan>

<tspan x="10" y="4010">[0220/175920.739590:ERROR:command_buffer_proxy_impl.cc(125)] ContextResult::kTransientFailure: F\</tspan>
<tspan x="10" y="4026">ailed to send GpuChannelMsg_CreateCommandBuffer.</tspan>

<tspan x="10" y="4042">[0220/175920.749593:WARNING:ipc_message_attachment_set.cc(49)] MessageAttachmentSet destroyed wi\</tspan>
<tspan x="10" y="4058">th unconsumed attachments: 0/1</tspan>

<tspan x="10" y="4074">[0220/175920.759026:WARNING:ipc_message_attachment_set.cc(49)] MessageAttachmentSet destroyed wi\</tspan>
<tspan x="10" y="4090">th unconsumed attachments: 0/1</tspan>

<tspan x="10" y="4106">[0220/175920.759285:WARNING:ipc_message_attachment_set.cc(49)] MessageAttachmentSet destroyed wi\</tspan>
<tspan x="10" y="4122">th unconsumed attachments: 0/1</tspan>

<tspan x="10" y="4138">http-server listening on port 45833</tspan>

<tspan x="10" y="4154">[0220/175921.725415:INFO:CONSOLE(381)] "testRunDefault - 6 ms - [browser test-case 1 of 2 passed\</tspan>
<tspan x="10" y="4170">] - testCase_buildApp_default", source: http://127.0.0.1:38268/assets.example.js (381)</tspan>

<tspan x="10" y="4186">[0220/175921.742328:INFO:CONSOLE(381)] "testRunDefault - 23 ms - [browser test-case 2 of 2 passe\</tspan>
<tspan x="10" y="4202">d] - testCase_nop_default", source: http://127.0.0.1:38268/assets.example.js (381)</tspan>

<tspan x="10" y="4218">[0220/175921.866362:INFO:CONSOLE(381)] "domOnEventWindowOnloadTimeElapsed = 882", source: http:/\</tspan>
<tspan x="10" y="4234">/127.0.0.1:38268/assets.example.js (381)</tspan>

<tspan x="10" y="4250">testRunDefault - 1869 ms - [node test-case 6 of 7 passed] - testCase_webpage_default</tspan>

<tspan x="10" y="4266">Error: Protocol error (Runtime.enable): Target closed.</tspan>

<tspan x="10" y="4282">    at /tmp/npmTestPublished/node_modules/sqljs-lite/node_modules/utility2/lib.puppeteer.js:4749\</tspan>
<tspan x="10" y="4298">:56</tspan>

<tspan x="10" y="4314">    at new Promise (&lt;anonymous&gt;)</tspan>

<tspan x="10" y="4330">    at CDPSession.send (/tmp/npmTestPublished/node_modules/sqljs-lite/node_modules/utility2/lib.\</tspan>
<tspan x="10" y="4346">puppeteer.js:4748:12)</tspan>

<tspan x="10" y="4362">    at new Worker (/tmp/npmTestPublished/node_modules/sqljs-lite/node_modules/utility2/lib.puppe\</tspan>
<tspan x="10" y="4378">teer.js:12630:18)</tspan>

<tspan x="10" y="4394">    at CDPSession.&lt;anonymous&gt; (/tmp/npmTestPublished/node_modules/sqljs-lite/node_modules/utilit\</tspan>
<tspan x="10" y="4410">y2/lib.puppeteer.js:10457:22)</tspan>

<tspan x="10" y="4426">    at CDPSession.emit (events.js:321:20)</tspan>

<tspan x="10" y="4442">    at CDPSession.EventEmitter.emit (domain.js:485:12)</tspan>

<tspan x="10" y="4458">    at CDPSession._onMessage (/tmp/npmTestPublished/node_modules/sqljs-lite/node_modules/utility\</tspan>
<tspan x="10" y="4474">2/lib.puppeteer.js:4766:12)</tspan>

<tspan x="10" y="4490">    at Connection._onMessage (/tmp/npmTestPublished/node_modules/sqljs-lite/node_modules/utility\</tspan>
<tspan x="10" y="4506">2/lib.puppeteer.js:4678:17)</tspan>

<tspan x="10" y="4522">    at WebSocket.&lt;anonymous&gt; (/tmp/npmTestPublished/node_modules/sqljs-lite/node_modules/utility\</tspan>
<tspan x="10" y="4538">2/lib.puppeteer.js:12559:24) {</tspan>

<tspan x="10" y="4554">  message: 'Protocol error (Runtime.enable): Target closed.'</tspan>

<tspan x="10" y="4570">}</tspan>

<tspan x="10" y="4586">testRunDefault - 5948 ms - [node test-case 7 of 7 passed] - testCase_buildApp_default</tspan>

<tspan x="10" y="4602">------------------------|-----------|-----------|-----------|-----------|</tspan>

<tspan x="10" y="4618">File                    |   % Stmts |% Branches |   % Funcs |   % Lines |</tspan>

<tspan x="10" y="4634">------------------------|-----------|-----------|-----------|-----------|</tspan>

<tspan x="10" y="4650">   sqljs-lite/          |     96.38 |     96.54 |     97.49 |     96.01 |</tspan>

<tspan x="10" y="4666">      lib.sqljs_lite.js |     96.29 |     96.45 |     97.44 |     95.92 |</tspan>

<tspan x="10" y="4682">      test.js           |       100 |       100 |       100 |       100 |</tspan>

<tspan x="10" y="4698">------------------------|-----------|-----------|-----------|-----------|</tspan>

<tspan x="10" y="4714">All files               |     96.38 |     96.54 |     97.49 |     96.01 |</tspan>

<tspan x="10" y="4730">------------------------|-----------|-----------|-----------|-----------|</tspan>

<tspan x="10" y="4746"></tspan>

<tspan x="10" y="4762">created coverage file /tmp/npmTestPublished/node_modules/sqljs-lite/tmp/build/coverage.html/inde\</tspan>
<tspan x="10" y="4778">x.html</tspan>

<tspan x="10" y="4794"></tspan>

<tspan x="10" y="4810">-------------------------------------------------------</tspan>

<tspan x="10" y="4826">| test-report - npmTestPublished - browser - / - Mozilla/5.0 (X11; Linux x86_64) AppleWebKit/537\</tspan>
<tspan x="10" y="4842">.36 (KHTML, like Gecko) HeadlessChrome/80.0.3987.116 Safari/537.36 - 2020-02-20T17:59:21.042Z</tspan>

<tspan x="10" y="4858">|      37 ms            0 failed        2 passed      |</tspan>

<tspan x="10" y="4874">-------------------------------------------------------</tspan>

<tspan x="10" y="4890">| test-report - npmTestPublished - node - linux v13.9.0 - 2020-02-20T17:59:18.428Z</tspan>

<tspan x="10" y="4906">|    5950 ms            0 failed        7 passed      |</tspan>

<tspan x="10" y="4922">-------------------------------------------------------</tspan>

<tspan x="10" y="4938"></tspan>

<tspan x="10" y="4954">created test-report file /tmp/npmTestPublished/node_modules/sqljs-lite/tmp/build/test-report.htm\</tspan>
<tspan x="10" y="4970">l</tspan>

<tspan x="10" y="4986"></tspan>

<tspan x="10" y="5002"></tspan>

<tspan x="10" y="5018">npmTestPublished - 0 failed tests</tspan>

<tspan x="10" y="5034"></tspan>

<tspan x="10" y="5050"></tspan>

<tspan x="10" y="5066">\x1b[35m[MODE_BUILD=npmTestPublished]\x1b[0m - 2020-02-20T17:59:26.482Z - EXIT_CODE - 0</tspan>

</text>
</svg>
